<svg xmlns="http://www.w3.org/2000/svg" viewBox="0 0 88.5792847 24"><path d="M88.5792847,12.1851807v10.7192993c0,.347229-.2814941.6287231-.6286621.6287231h-5.5353394c-.347168,0-.6286621-.2814941-.6286621-.6287231v-10.2525024c0-.5579834-.1288452-.9925537-.3862915-1.303772-.2576294-.3112183-.6439209-.4667969-1.1589966-.4667969-.3970337,0-.7350464.0858154-1.0140381.2575073-.2683105.1716919-.472168.413208-.6116943.7243652-.1287842.300415-.1931763.654541-.1931763,1.0623169v9.9788818c0,.347229-.2814941.6287231-.6287231.6287231h-5.5352783c-.347229,0-.6287231-.2814941-.6287231-.6287231V7.019165c0-.347229.2814941-.6287231.6287231-.6287231h5.277771c.347229,0,.6287231.2814941.6287231.6287231v1.6672363c.1000977-.1985474.2113037-.390564.3380127-.5736084.4935913-.6975708,1.1428833-1.2340698,1.9476929-1.6096802.8154907-.3862915,1.7437744-.5794678,2.784668-.5794678,1.1375122,0,2.1086426.2628784,2.9133911.7886963.8049316.5151367,1.4111938,1.244812,1.8189087,2.1891479.4078369.9335938.6116943,2.0281982.6116943,3.2836914ZM68.7017822,6.3905029h-5.5352783c-.347229,0-.6287231.2814941-.6287231.6287231v15.885376c0,.347168.2814941.6287231.6287231.6287231h5.5352783c.347229,0,.6287231-.2815552.6287231-.6287231V7.0192261c0-.347229-.2814941-.6287231-.6287231-.6287231ZM67.3357544.4506226h-2.9266357c-1.4596558,0-2.6429443,1.1832886-2.6429443,2.6429443,0,1.4595947,1.1832886,2.6428833,2.6429443,2.6428833h2.9266357c1.4596558,0,2.6428833-1.1832886,2.6428833-2.6428833,0-1.4596558-1.1832275-2.6429443-2.6428833-2.6429443ZM60.0546265,10.0925293c.5579834,1.3520508.8370972,2.9778442.8370972,4.8772583,0,1.8886108-.2791138,3.5144043-.8370972,4.8771973-.5580444,1.3521118-1.3467407,2.3823242-2.3662109,3.0905151-1.0194092.708313-2.2052002,1.0623779-3.557312,1.0623779-.9335938,0-1.7598877-.1502075-2.4788208-.4506836-.708252-.3004761-1.303894-.7457886-1.7866821-1.3359985-.2530518-.3220825-.461731-.6923828-.6439209-1.0914917v1.7827148c0,.347168-.2814941.6286621-.6286621.6286621h-5.5353394c-.347168,0-.6286621-.2814941-.6286621-.6286621V1.0794067c0-.347229.2814941-.6287231.6286621-.6287231h5.5353394c.347168,0,.6286621.2814941.6286621.6287231v7.8778076c.203125-.4233398.4307251-.821106.708252-1.1665039.4828491-.6009521,1.0784912-1.0623779,1.7867432-1.3842773.7189331-.3219604,1.539856-.4829102,2.4627075-.4829102,1.3414307,0,2.5164185.354126,3.5251465,1.0623779,1.0087891.708252,1.7920532,1.7437744,2.3500977,3.1066284ZM53.9702148,14.9536743c0-.8584595-.0913086-1.5935669-.2737427-2.2052612-.182373-.6224365-.4559937-1.0945435-.8208618-1.4165039-.354126-.3325806-.7941284-.4989014-1.3198853-.4989014-.5151367,0-.9551392.1663208-1.3199463.4989014-.354187.3219604-.6223755.7940674-.8048706,1.4165039-.1824341.6116943-.2736206,1.3468018-.2736206,2.2052612,0,.8583984.0911865,1.598938.2736206,2.2213135.1824951.6116333.4506836,1.0838013.8048706,1.4165039.3648071.3218994.8048096.4829102,1.3199463.4829102.5257568,0,.9657593-.1610107,1.3198853-.4829102.3648682-.3327026.6384888-.8048706.8208618-1.4165039.1824341-.6223755.2737427-1.362915.2737427-2.2213135ZM40.7567749,22.753418c.0757446.1077881.142334.2295532.142334.3612671,0,.2311401-.1873169.4185181-.4185181.4185181h-6.0726929c-.2976074,0-.555603-.208374-.6068115-.5015869-.0551758-.31604-.1036987-.6478271-.1453857-.9954224-.0279541-.2376099-.0495605-.493042-.0673828-.7590332-.0583496.09729-.1096802.1971436-.1740112.2922363-.4829102.7189941-1.1536255,1.303894-2.012085,1.7545776-.8477173.4507446-1.8618164.6760254-3.0422363.6760254-1.0946045,0-2.071106-.2145996-2.9295654-.6439209-.8585205-.4291992-1.5292358-1.0462036-2.0120239-1.8509521-.4829102-.8156128-.7243652-1.7653198-.7243652-2.8491211,0-1.6096802.4667969-2.8276367,1.4003906-3.6539307.9442749-.8262939,2.3339844-1.3574829,4.1690063-1.5935669l3.2353516-.4185181c.4935913-.0643921.8853149-.1555786,1.1750488-.2736206.3004761-.118042.5204468-.2736816.6599731-.4667969.1395264-.2038574.2092285-.4560547.2092285-.7565918,0-.2575073-.0643311-.4881592-.1931152-.6920776s-.3112183-.3594971-.5473022-.4667969c-.236084-.118103-.5151367-.177124-.8370361-.177124-.5686646,0-1.0140991.1664429-1.3359985.4990234-.1948853.1948853-.3346558.4310913-.4194946.7084961-.0986938.322876-.3624878.5952759-.7000732.5952759h-5.723999c-.3582153,0-.6478271-.2998657-.5932007-.6538696.1442871-.9351196.5092163-1.7741699,1.0947876-2.5170898.7189331-.9121094,1.7277222-1.6149902,3.026123-2.1086426,1.2984619-.5043335,2.8114624-.7565308,4.5391846-.7565308,1.8458252,0,3.3909912.2789917,4.6358032.8370361,1.2554932.5472412,2.194519,1.3359985,2.8168945,2.3661499.6223755,1.0194702.9335938,2.2374878.9335938,3.6539917v6.8570557c0,.7297363.0535889,1.4165039.1610107,2.0603027.0905151.4937134.2092896.8453979.3565674,1.0552368ZM33.5430298,16.9014893v-1.4026489c-.0828857.0706787-.166687.1394653-.2575073.1953735-.2789917.1610107-.6653442.2897949-1.1589355.3862915l-.6921997.1287842c-.5686646.1072998-1.0140991.3057861-1.3359985.5955811-.3218994.2897339-.4829102.6868286-.4829102,1.1911011,0,.472229.1556396.8424072.4667969,1.1107178.3112183.2683105.7190552.4024048,1.2233276.4024048.4293213,0,.8101807-.1019897,1.1428833-.3057861.3434448-.2039185.6116943-.4990234.8048096-.885437.1931763-.3969727.2897339-.8692017.2897339-1.4163818ZM9.0623169,6.3742065c.6009521-.472168,1.3359985-.708252,2.2052002-.708252.7404785,0,1.362854.1556396,1.8671875.4667969.5043945.3112183.890686.7619019,1.1589966,1.3521118.2022705.4451294.3405151.9604492.4146729,1.5458984.0421143.3320923.3146973.5949707.6494141.5949707h5.9591064c.3511353,0,.6359253-.2880249.6138306-.6384277-.1105347-1.7557983-.5635986-3.276062-1.359436-4.560791-.890686-1.4486694-2.1461792-2.548584-3.7666016-3.2997437-1.6203003-.7511597-3.5304565-1.12677-5.7302856-1.12677-2.2642212,0-4.2280273.4667969-5.8913574,1.4003906-1.6525269.9228516-2.9295044,2.2910767-3.8309326,4.1046143-.9014282,1.8027954-1.3521118,3.9865723-1.3521118,6.5512695,0,2.5110474.4346313,4.6625977,1.303833,6.4547119.8799438,1.7921143,2.1515503,3.1549072,3.8148804,4.088501,1.6740112.9335938,3.6914673,1.4003906,6.0523071,1.4003906,2.135376,0,3.9972534-.3540649,5.5855103-1.0623779,1.5880737-.7081909,2.8382568-1.7866821,3.7503662-3.2354126.821228-1.3139038,1.2944946-2.923584,1.4199219-4.8289795.0231934-.352478-.262207-.6437988-.6155396-.6437988h-5.9477539c-.3370361,0-.6107178.2664185-.6517334.6010132-.0654907.5350952-.1887817,1.0268555-.369812,1.4754639-.236084.6116333-.6062622,1.0999146-1.1106567,1.4647217-.5043335.3648682-1.1481934.5473022-1.9316406.5473022-.9227905,0-1.6846924-.236084-2.2856445-.7081909-.6009521-.4829102-1.0462646-1.1912231-1.3359985-2.1248169-.2897339-.9442749-.4346313-2.1085815-.4346313-3.4929199,0-1.3842773.1502686-2.548584.4506836-3.4929199.3112183-.9443359.7672729-1.6525879,1.3682251-2.1247559Z"/></svg>